<svg width="297" height="297" viewBox="0 0 297 297" fill="none" xmlns="http://www.w3.org/2000/svg">
<g clip-path="url(#clip0_61_2)">
<path d="M149 233.754C146.193 233.77 143.409 233.232 140.81 232.17C138.211 231.109 135.847 229.544 133.854 227.567L5.85355 99.5673C1.8364 95.5501 -0.42041 90.1017 -0.42041 84.4206C-0.42041 78.7395 1.8364 73.2911 5.85355 69.274C9.87069 65.2568 15.3191 63 21.0002 63C26.6813 63 32.1297 65.2568 36.1469 69.274L149 182.341L261.854 69.4873C265.935 65.9923 271.184 64.1661 276.553 64.3734C281.922 64.5808 287.016 66.8066 290.815 70.6059C294.614 74.4053 296.84 79.4984 297.047 84.8675C297.255 90.2366 295.429 95.4862 291.934 99.5673L163.934 227.567C159.96 231.509 154.597 233.73 149 233.754Z" fill="#E0E0E0"/>
</g>
<defs>
<clipPath id="clip0_61_2">
<rect width="297" height="297" fill="white"/>
</clipPath>
</defs>
</svg>
